<svg width="18" height="19" viewBox="0 0 18 19" fill="none" xmlns="http://www.w3.org/2000/svg">
<g clip-path="url(#clip0_1_7166)">
<g clip-path="url(#clip1_1_7166)">
<path fill-rule="evenodd" clip-rule="evenodd" d="M8.28481 15.1702C11.8779 15.1702 14.7908 12.2575 14.7908 8.66445C14.7906 5.07136 11.8779 2.15871 8.28461 2.15871C4.6913 2.15871 1.77907 5.07136 1.77907 8.66445C1.77907 12.2575 4.69172 15.1702 8.28481 15.1702ZM8.28481 16.9493C12.8604 16.9493 16.5698 13.2402 16.5698 8.66445C16.5696 4.08889 12.8604 0.379639 8.28461 0.379639C3.70926 0.379639 0 4.08889 0 8.66445C0 13.24 3.70926 16.9493 8.28481 16.9493Z" fill="#0B3954"/>
<path fill-rule="evenodd" clip-rule="evenodd" d="M16.5695 18.1703L12.688 14.2888L13.9459 13.0309L17.8278 16.9124L16.5695 18.1703Z" fill="#0B3954"/>
</g>
</g>
<defs>
<clipPath id="clip0_1_7166">
<rect width="18" height="17.78" fill="white" transform="translate(0 0.38501)"/>
</clipPath>
<clipPath id="clip1_1_7166">
<rect width="18" height="17.7907" fill="white" transform="translate(0 0.379639)"/>
</clipPath>
</defs>
</svg>
